<svg xmlns="http://www.w3.org/2000/svg" viewBox="0 0 338.16 95.06"><defs><style>.cls-1{isolation:isolate;}.cls-2{fill:#010201;}.cls-3{fill:#7d1f44;mix-blend-mode:multiply;}.cls-4{fill:#c21e58;}</style></defs><g class="cls-1"><g id="Layer_2" data-name="Layer 2"><g id="Layer_1-2" data-name="Layer 1"><path class="cls-2" d="M102.53,11.38l12-2V25h18.4V35H114.5V56.09c0,4.15.65,7.12,2,8.9s3.57,2.67,6.73,2.67A22,22,0,0,0,129,67a36.8,36.8,0,0,0,4-1.29l2,9.5A42.57,42.57,0,0,1,129.53,77a29.43,29.43,0,0,1-7.91.94,25,25,0,0,1-9.25-1.48,13.68,13.68,0,0,1-5.89-4.31,16.93,16.93,0,0,1-3.06-6.82,42,42,0,0,1-.89-9.15Z"/><path class="cls-2" d="M174,35.81a37.45,37.45,0,0,0-4.11-1,30.38,30.38,0,0,0-6.08-.54,24.52,24.52,0,0,0-4.21.39,25.52,25.52,0,0,0-3.11.7V76.76h-12V27.5a65.75,65.75,0,0,1,8.65-2.42,54,54,0,0,1,11.53-1.14c.79,0,1.71,0,2.77.15s2.11.23,3.17.39,2.07.37,3.06.6,1.78.44,2.38.64Z"/><path class="cls-2" d="M197.69,9.89a6.87,6.87,0,0,1-2.17,5.34,7.42,7.42,0,0,1-5.15,2,7.52,7.52,0,0,1-5.24-2A6.81,6.81,0,0,1,183,9.89a7,7,0,0,1,2.18-5.44,7.52,7.52,0,0,1,5.24-2,7.42,7.42,0,0,1,5.15,2A7,7,0,0,1,197.69,9.89ZM196.4,76.76h-12V25h12Z"/><path class="cls-2" d="M258.23,50.94a36.42,36.42,0,0,1-1.54,10.89,25.19,25.19,0,0,1-4.4,8.5,19.46,19.46,0,0,1-7.17,5.54,23.06,23.06,0,0,1-9.74,2,24.19,24.19,0,0,1-6.73-.89,24.61,24.61,0,0,1-5.05-2V95.06h-12V26.71c2.43-.66,5.44-1.29,9-1.88a68.92,68.92,0,0,1,11.27-.89,30.33,30.33,0,0,1,11,1.88,22.87,22.87,0,0,1,8.25,5.39,23.69,23.69,0,0,1,5.25,8.51A32.44,32.44,0,0,1,258.23,50.94Zm-12.27.2q0-8-3.61-12.46t-11.62-4.45c-1.12,0-2.3.05-3.51.15a18.69,18.69,0,0,0-3.62.64V64.6a18.61,18.61,0,0,0,4.21,2,16.32,16.32,0,0,0,5.59.94q6.53,0,9.55-4.45C245,60.14,246,56.16,246,51.14Z"/><path class="cls-2" d="M288.6,77.75a32.53,32.53,0,0,1-8.86-1.18,13.74,13.74,0,0,1-5.59-3.12,11,11,0,0,1-2.91-5,25.75,25.75,0,0,1-.85-6.88V2l12-2V59.25a16.54,16.54,0,0,0,.34,3.67A5.91,5.91,0,0,0,284,65.44,5.53,5.53,0,0,0,286.37,67a19.32,19.32,0,0,0,3.91.84Z"/><path class="cls-2" d="M317.18,23.74a29.32,29.32,0,0,1,10,1.49,15.92,15.92,0,0,1,6.48,4.15,15.71,15.71,0,0,1,3.46,6.48,31.84,31.84,0,0,1,1,8.36V75.58c-1.85.39-4.63.87-8.36,1.43a85.52,85.52,0,0,1-12.62.84,38,38,0,0,1-8.5-.89,17.81,17.81,0,0,1-6.58-2.87A13.46,13.46,0,0,1,297.85,69a17.72,17.72,0,0,1-1.54-7.82,15,15,0,0,1,1.74-7.51,14.22,14.22,0,0,1,4.69-5,20.25,20.25,0,0,1,6.88-2.77,38.66,38.66,0,0,1,8.16-.84,35.6,35.6,0,0,1,4.15.25,37.08,37.08,0,0,1,4.65.84v-2a15.57,15.57,0,0,0-.49-4,8.28,8.28,0,0,0-1.73-3.31,8.2,8.2,0,0,0-3.26-2.23,14.38,14.38,0,0,0-5.1-.79,44.79,44.79,0,0,0-7.62.6,32.73,32.73,0,0,0-5.64,1.38l-1.48-9.69a46.46,46.46,0,0,1,6.63-1.59A52.63,52.63,0,0,1,317.18,23.74Zm1,44.62a44,44,0,0,0,8.4-.6V54.51a23,23,0,0,0-2.86-.6,27.9,27.9,0,0,0-4.16-.29,28.9,28.9,0,0,0-4,.29A12.51,12.51,0,0,0,311.89,55a6.62,6.62,0,0,0-2.62,2.23,6.2,6.2,0,0,0-1,3.61q0,4.25,2.67,5.88A13.77,13.77,0,0,0,318.18,68.36Z"/><polygon class="cls-3" points="62.6 28.09 72.19 11.13 84.53 29.3 62.6 28.09"/><polygon class="cls-4" points="57.9 67.93 0 76.76 72.19 11.13 57.9 67.93"/><polygon class="cls-3" points="14.14 19.52 26.19 52.95 57.9 67.93 44.67 36.15 14.14 19.52"/></g></g></g></svg>